<?xml version="1.0" encoding="UTF-8" standalone="no"?>
<!-- Created with Inkscape (http://www.inkscape.org/) -->

<svg
   xmlns:dc="http://purl.org/dc/elements/1.1/"
   xmlns:cc="http://creativecommons.org/ns#"
   xmlns:rdf="http://www.w3.org/1999/02/22-rdf-syntax-ns#"
   xmlns:svg="http://www.w3.org/2000/svg"
   xmlns="http://www.w3.org/2000/svg"
   xmlns:sodipodi="http://sodipodi.sourceforge.net/DTD/sodipodi-0.dtd"
   xmlns:inkscape="http://www.inkscape.org/namespaces/inkscape"
   id="svg2"
   version="1.1"
   inkscape:version="0.48.4 r9939"
   width="549.57227"
   height="288.62415"
   xml:space="preserve"
   sodipodi:docname="UD_center.svg"
   inkscape:export-filename="/home/per/UD/UD_center.png"
   inkscape:export-xdpi="101.6"
   inkscape:export-ydpi="101.6"><metadata
     id="metadata8"><rdf:RDF><cc:Work
         rdf:about=""><dc:format>image/svg+xml</dc:format><dc:type
           rdf:resource="http://purl.org/dc/dcmitype/StillImage" /><dc:title></dc:title></cc:Work></rdf:RDF></metadata><defs
     id="defs6"><clipPath
       clipPathUnits="userSpaceOnUse"
       id="clipPath20"><path
         d="m 0,841.89 1190.55,0 L 1190.55,0 0,0 0,841.89 z"
         id="path22"
         inkscape:connector-curvature="0" /></clipPath></defs><sodipodi:namedview
     pagecolor="#ffffff"
     bordercolor="#666666"
     borderopacity="1"
     objecttolerance="10"
     gridtolerance="10"
     guidetolerance="10"
     inkscape:pageopacity="0"
     inkscape:pageshadow="2"
     inkscape:window-width="1366"
     inkscape:window-height="768"
     id="namedview4"
     showgrid="false"
     fit-margin-top="10"
     fit-margin-left="10"
     fit-margin-right="10"
     fit-margin-bottom="10"
     inkscape:zoom="1.2685909"
     inkscape:cx="231.1192"
     inkscape:cy="113.16258"
     inkscape:window-x="0"
     inkscape:window-y="0"
     inkscape:window-maximized="0"
     inkscape:current-layer="g10" /><g
     id="g10"
     inkscape:groupmode="layer"
     inkscape:label="ud_logga_2014-2"
     transform="matrix(1.25,0,0,-1.25,-262.42382,1144.916)"><path
       inkscape:connector-curvature="0"
       id="path14"
       style="fill:#000000;fill-opacity:1;fill-rule:nonzero;stroke:none"
       d="m 348.016,907.9328 0,-86.71258 78.04158,0 8.671,0 78.04092,0 0,86.71258 -164.7535,0 z m 86.71258,-8.67165 69.36927,0 0,-69.36993 -69.36927,0 0,69.36993 z m -78.04093,0 69.36993,0 0,-69.36993 -69.36993,0 0,69.36993 z" /><g
       id="g24"
       transform="matrix(0.6565454,0,0,0.6565454,387.0362,856.77222)"
       style="fill:#000000"><path
         d="m 0,0 0,-76.074 -10.566,0 17.17,-26.414 17.17,26.414 -10.566,0 L 13.208,0 0,0 z M 6.604,18.491 C 2.958,18.491 0,15.534 0,11.887 0,8.24 2.958,5.284 6.604,5.284 c 3.647,0 6.604,2.956 6.604,6.603 0,3.647 -2.957,6.604 -6.604,6.604"
         style="fill:#000000;fill-opacity:1;fill-rule:nonzero;stroke:none"
         id="path26"
         inkscape:connector-curvature="0" /></g><g
       id="g28"
       transform="matrix(0.6565454,0,0,0.6565454,477.21731,860.24121)"
       style="fill:#000000"><path
         d="m 0,0 76.074,0 0,-10.566 26.415,17.17 -26.415,17.169 0,-10.565 L 0,13.208 0,0 z m -18.491,6.604 c 0,-3.648 2.957,-6.604 6.604,-6.604 3.648,0 6.604,2.956 6.604,6.604 0,3.646 -2.956,6.604 -6.604,6.604 -3.647,0 -6.604,-2.958 -6.604,-6.604"
         style="fill:#000000;fill-opacity:1;fill-rule:nonzero;stroke:none"
         id="path30"
         inkscape:connector-curvature="0" /></g><g
       id="g3413"
       transform="matrix(0.99999263,0,0,0.99999263,0.0016053,0.00510475)"
       style="fill:#000000"><g
         transform="matrix(0.6565454,0,0,0.6565454,225.80513,700.83994)"
         id="g32"
         style="fill:#000000"><path
           inkscape:connector-curvature="0"
           id="path34"
           style="fill:#000000;fill-opacity:1;fill-rule:nonzero;stroke:none"
           d="M 0,0 13.17,0 C 27.713,0 33.475,10.609 33.201,21.036 32.926,31.005 27.073,40.975 13.17,40.975 L 0,40.975 0,0 z M 45.182,20.944 C 45.457,4.756 35.579,-11.616 13.17,-11.616 l -25.151,0 0,64.023 25.151,0 c 21.951,0 31.738,-15.64 32.012,-31.463" /></g><g
         transform="matrix(0.6565454,0,0,0.6565454,282.55272,726.42052)"
         id="g36"
         style="fill:#000000"><path
           inkscape:connector-curvature="0"
           id="path38"
           style="fill:#000000;fill-opacity:1;fill-rule:nonzero;stroke:none"
           d="m 0,0 -11.89,-27.255 23.78,0 L 0,0 z m 16.738,-38.505 -33.475,0 -5.488,-12.073 -13.079,0 28.719,64.023 13.17,0 28.719,-64.023 -13.17,0 -5.396,12.073 z" /></g><g
         transform="matrix(0.6565454,0,0,0.6565454,316.30263,728.04166)"
         id="g40"
         style="fill:#000000"><path
           inkscape:connector-curvature="0"
           id="path42"
           style="fill:#000000;fill-opacity:1;fill-rule:nonzero;stroke:none"
           d="m 0,0 -20.305,0 0,10.976 52.682,0 0,-10.976 -20.304,0 0,-53.047 L 0,-53.047 0,0 z" /></g><g
         transform="matrix(0.6565454,0,0,0.6565454,364.2227,726.42052)"
         id="g44"
         style="fill:#000000"><path
           inkscape:connector-curvature="0"
           id="path46"
           style="fill:#000000;fill-opacity:1;fill-rule:nonzero;stroke:none"
           d="m 0,0 -11.89,-27.255 23.781,0 L 0,0 z m 16.737,-38.505 -33.474,0 -5.488,-12.073 -13.079,0 28.719,64.023 13.17,0 28.72,-64.023 -13.171,0 -5.397,12.073 z" /></g><g
         transform="matrix(0.6565454,0,0,0.6565454,409.92285,693.03348)"
         id="g48"
         style="fill:#000000"><path
           inkscape:connector-curvature="0"
           id="path50"
           style="fill:#000000;fill-opacity:1;fill-rule:nonzero;stroke:none"
           d="m 0,0 -12.531,0 -26.615,64.297 13.537,0 19.297,-49.846 19.39,49.846 13.537,0 L 0,0 z" /></g><g
         transform="matrix(0.6565454,0,0,0.6565454,466.61141,693.21364)"
         id="g52"
         style="fill:#000000"><path
           inkscape:connector-curvature="0"
           id="path54"
           style="fill:#000000;fill-opacity:1;fill-rule:nonzero;stroke:none"
           d="m 0,0 -47.926,0 0,64.023 47.926,0 0,-11.707 -35.943,0 0,-14.726 34.664,0 0,-11.249 -34.664,0 0,-14.451 L 0,11.89 0,0 z" /></g><g
         transform="matrix(0.6565454,0,0,0.6565454,489.07117,728.04166)"
         id="g56"
         style="fill:#000000"><path
           inkscape:connector-curvature="0"
           id="path58"
           style="fill:#000000;fill-opacity:1;fill-rule:nonzero;stroke:none"
           d="m 0,0 -20.305,0 0,10.976 52.682,0 0,-10.976 -20.305,0 0,-53.047 L 0,-53.047 0,0 z" /></g><g
         transform="matrix(0.6565454,0,0,0.6565454,536.99131,726.42052)"
         id="g60"
         style="fill:#000000"><path
           inkscape:connector-curvature="0"
           id="path62"
           style="fill:#000000;fill-opacity:1;fill-rule:nonzero;stroke:none"
           d="m 0,0 -11.891,-27.255 23.782,0 L 0,0 z m 16.736,-38.505 -33.474,0 -5.487,-12.073 -13.08,0 28.719,64.023 13.17,0 28.721,-64.023 -13.172,0 -5.397,12.073 z" /></g><g
         transform="matrix(0.6565454,0,0,0.6565454,574.70288,727.86151)"
         id="g64"
         style="fill:#000000"><path
           inkscape:connector-curvature="0"
           id="path66"
           style="fill:#000000;fill-opacity:1;fill-rule:nonzero;stroke:none"
           d="m 0,0 0,-20.487 18.385,0 c 7.681,0 10.974,5.122 10.974,10.243 C 29.359,-5.122 25.977,0 18.385,0 L 0,0 z m 44.635,-52.773 -14.36,0 -18.658,21.402 -11.617,0 0,-21.402 -12.072,0 0,64.114 c 10.152,0 20.304,-0.091 30.457,-0.091 15.092,-0.092 23.049,-10.152 23.049,-21.219 0,-8.781 -4.026,-17.652 -16.19,-20.121 l 19.391,-21.86 0,-0.823 z" /></g><g
         transform="matrix(0.6565454,0,0,0.6565454,641.6,693.21364)"
         id="g68"
         style="fill:#000000"><path
           inkscape:connector-curvature="0"
           id="path70"
           style="fill:#000000;fill-opacity:1;fill-rule:nonzero;stroke:none"
           d="m 0,0 -47.926,0 0,64.023 47.926,0 0,-11.707 -35.945,0 0,-14.726 34.664,0 0,-11.249 -34.664,0 0,-14.451 L 0,11.89 0,0 z" /></g></g><g
       id="g3435"
       transform="matrix(1.0000127,0,0,1.0000114,77.009648,-0.00850008)"
       style="fill:#000000"><g
         transform="matrix(0.6565454,0,0,0.6565454,243.90215,778.96595)"
         id="g72"
         style="fill:#000000"><path
           inkscape:connector-curvature="0"
           id="path74"
           style="fill:#000000;fill-opacity:1;fill-rule:nonzero;stroke:none"
           d="m 0,0 0,-31.322 c 0,-26.355 -38.595,-26.427 -38.595,0 l 0,31.322 3.816,0 0,-31.322 c 0,-21.674 30.963,-21.603 30.963,0 L -3.816,0 0,0 z" /></g><g
         transform="matrix(0.6565454,0,0,0.6565454,262.8557,776.60199)"
         id="g76"
         style="fill:#000000"><path
           inkscape:connector-curvature="0"
           id="path78"
           style="fill:#000000;fill-opacity:1;fill-rule:nonzero;stroke:none"
           d="m 0,0 0,-25.85 18.218,0 c 16.777,0 16.777,25.85 0,25.85 L 0,0 z m 0,-29.378 0,-17.426 -3.888,0 0,50.405 22.106,0 c 21.889,0 21.889,-32.979 0,-32.979 l -18.218,0 z" /></g><g
         transform="matrix(0.6565454,0,0,0.6565454,303.2249,776.60199)"
         id="g80"
         style="fill:#000000"><path
           inkscape:connector-curvature="0"
           id="path82"
           style="fill:#000000;fill-opacity:1;fill-rule:nonzero;stroke:none"
           d="m 0,0 0,-25.85 18.218,0 c 16.777,0 16.777,25.85 0,25.85 L 0,0 z m 0,-29.378 0,-17.426 -3.888,0 0,50.405 22.106,0 c 21.889,0 21.889,-32.979 0,-32.979 l -18.218,0 z" /></g><g
         transform="matrix(0.6565454,0,0,0.6565454,362.50471,772.58387)"
         id="g84"
         style="fill:#000000"><path
           inkscape:connector-curvature="0"
           id="path86"
           style="fill:#000000;fill-opacity:1;fill-rule:nonzero;stroke:none"
           d="m 0,0 c -3.672,5.904 -9.577,6.769 -15.266,6.841 -5.904,0 -15.265,-2.16 -15.265,-10.226 0,-6.408 6.913,-7.92 15.409,-9.505 C -5.4,-14.762 4.68,-16.489 4.68,-27.362 4.608,-38.739 -6.841,-41.476 -15.266,-41.476 c -7.848,0 -16.777,3.241 -20.665,10.946 l 3.456,1.727 c 3.097,-6.12 11.017,-9.144 17.209,-9.144 6.193,0 16.058,1.728 16.058,10.657 0.072,7.561 -8.281,9.217 -16.562,10.801 -9.216,1.8 -18.649,3.672 -18.649,12.961 -0.216,10.657 10.873,13.968 19.153,13.968 7.201,0 13.466,-1.151 18.434,-8.568 L 0,0 z" /></g><g
         transform="matrix(0.6565454,0,0,0.6565454,402.11738,756.36831)"
         id="g88"
         style="fill:#000000"><path
           inkscape:connector-curvature="0"
           id="path90"
           style="fill:#000000;fill-opacity:1;fill-rule:nonzero;stroke:none"
           d="M 0,0 -13.537,30.675 -27.074,0 0,0 z m 7.057,-15.985 -5.545,12.384 -30.097,0 -5.473,-12.384 -4.177,0 22.61,50.404 4.248,0 22.611,-50.404 -4.177,0 z" /></g><g
         transform="matrix(0.6565454,0,0,0.6565454,426.22363,778.96595)"
         id="g92"
         style="fill:#000000"><path
           inkscape:connector-curvature="0"
           id="path94"
           style="fill:#000000;fill-opacity:1;fill-rule:nonzero;stroke:none"
           d="m 0,0 0,-46.732 28.371,0 0,-3.672 -32.26,0 L -3.889,0 0,0 z" /></g><g
         transform="matrix(0.6565454,0,0,0.6565454,480.82332,756.36831)"
         id="g96"
         style="fill:#000000"><path
           inkscape:connector-curvature="0"
           id="path98"
           style="fill:#000000;fill-opacity:1;fill-rule:nonzero;stroke:none"
           d="M 0,0 -13.537,30.675 -27.074,0 0,0 z m 7.057,-15.985 -5.545,12.384 -30.098,0 -5.473,-12.384 -4.177,0 22.611,50.404 4.248,0 22.609,-50.404 -4.175,0 z" /></g></g></g></svg>